<svg width="1714" height="1146" viewBox="0 0 1714 1146" fill="none" xmlns="http://www.w3.org/2000/svg">
<path d="M767.339 375.985L224.339 95.5V682L767.339 375.985Z" fill="#180F05"/>
<path d="M314.339 143.672L280.339 125.297V651.714L314.339 632.346V143.672Z" fill="#CD707A"/>
<path d="M377.839 176.946L343.839 159.067V615.461L377.839 596.589V176.946Z" fill="#CD707A"/>
<path d="M441.839 210.219L407.839 192.341V579.704L441.839 560.336V210.219Z" fill="#CD707A"/>
<path d="M505.839 243.493L471.839 225.614V542.954L505.839 523.586V243.493Z" fill="#CD707A"/>
<path d="M569.839 276.766L535.839 258.888V506.701L569.839 487.333V276.766Z" fill="#CD707A"/>
<path d="M633.839 310.04L599.339 292.161L599.839 470.448L633.839 451.08V310.04Z" fill="#CD707A"/>
<path d="M697.839 343.313L663.839 325.932V434.195L697.839 414.826V343.313Z" fill="#CD707A"/>
<path d="M1170.34 543.403L1713.34 264.5V1146H1170.34V543.403Z" fill="#19151D"/>
<path d="M1623 312.346L1657 294V1146H1623V312.346Z" fill="#FFE500"/>
<path d="M1560 345.801L1594 328V1146H1560V345.801Z" fill="#FFE500"/>
<path d="M1496 378.829L1530 361V1146H1496V378.829Z" fill="#FFE500"/>
<path d="M1432 411.845L1466 394V1146H1432V411.845Z" fill="#FFE500"/>
<path d="M1367.84 444.744L1401.84 426.966V673.382L1367.84 654.123V444.744Z" fill="#FBFF90"/>
<path d="M1303.84 477.829L1338.34 460.052L1337.84 637.333L1303.84 618.074V477.829Z" fill="#FBFF90"/>
<path d="M1239.84 510.916L1273.84 493.632V601.284L1239.84 582.026V510.916Z" fill="#FBFF90"/>
<path d="M0 812L224 682.5V96L0 223.5V812Z" fill="#E3BF00"/>
<path d="M224 682.607L0 809V786.377L224 659V682.607Z" fill="#180F05"/>
<path d="M224 631.607L0 758V735.377L224 608V631.607Z" fill="#180F05"/>
<path d="M224 580.607L0 707V684.377L224 557V580.607Z" fill="#180F05"/>
<path d="M224 528.764L0 656V633.226L224 505V528.764Z" fill="#180F05"/>
<path d="M224 476.607L0 603V580.377L224 453V476.607Z" fill="#180F05"/>
<path d="M224 425.607L0 552V529.377L224 402V425.607Z" fill="#180F05"/>
<path d="M224 374.764L0 502V479.226L224 351V374.764Z" fill="#180F05"/>
<path d="M224 322.764L0 450V427.226L224 299V322.764Z" fill="#180F05"/>
<path d="M224 271.607L0 398V375.377L224 248V271.607Z" fill="#180F05"/>
<path d="M224 220.607L0 347V324.377L224 197V220.607Z" fill="#180F05"/>
<path d="M224 169.764L0 297V274.226L224 146V169.764Z" fill="#180F05"/>
<path d="M224.339 119.107L0 245.5V223L224.339 95.5V119.107Z" fill="#180F05"/>
<path d="M733.925 799.865L512.153 666.586L0.499123 950.585L219.021 1084.83L733.925 799.865Z" fill="#180F05"/>
<path d="M512.246 666.534L731.3 801.318L711.506 812.272L491.591 677.965L512.246 666.534Z" fill="#1A2D54"/>
<path d="M467.624 691.229L686.678 826.013L666.884 836.968L446.969 702.66L467.624 691.229Z" fill="#1A2D54"/>
<path d="M423.002 715.925L642.056 850.709L622.262 861.664L402.347 727.356L423.002 715.925Z" fill="#1A2D54"/>
<path d="M377.642 741.029L597.434 875.404L577.508 886.432L356.85 752.536L377.642 741.029Z" fill="#1A2D54"/>
<path d="M332.883 765.801L551.937 900.584L532.143 911.539L312.228 777.232L332.883 765.801Z" fill="#1A2D54"/>
<path d="M288.261 790.496L507.315 925.28L487.521 936.235L267.606 801.927L288.261 790.496Z" fill="#1A2D54"/>
<path d="M242.901 815.6L462.693 949.976L442.767 961.003L222.109 827.107L242.901 815.6Z" fill="#1A2D54"/>
<path d="M198.279 840.296L418.071 974.671L398.145 985.699L177.487 851.803L198.279 840.296Z" fill="#1A2D54"/>
<path d="M153.52 865.067L372.574 999.851L352.78 1010.81L132.865 876.498L153.52 865.067Z" fill="#1A2D54"/>
<path d="M108.898 889.763L327.952 1024.55L308.158 1035.5L88.2432 901.194L108.898 889.763Z" fill="#1A2D54"/>
<path d="M63.5383 914.867L283.33 1049.24L263.404 1060.27L42.7463 926.374L63.5383 914.867Z" fill="#1A2D54"/>
<path d="M19.6535 939.154L238.708 1073.94L218.914 1084.89L8.6066e-05 952L19.6535 939.154Z" fill="#1A2D54"/>
<path d="M8.6066e-05 952L7.43866e-05 808.216L1418 0H1713L8.6066e-05 952Z" fill="#1A2D54"/>
<path d="M218 1085L8.6066e-05 952L7.43866e-05 1146H108.5L218 1085Z" fill="#19151D"/>
<path d="M511.839 666.5L730.839 801L1713.34 264.5L1713 0L511.839 666.5Z" fill="#FFE600"/>
<path d="M1184.34 552.999C1263.42 590.412 1397.06 672.79 1402.25 675.115L917.839 919L730.839 801L1184.34 552.999Z" fill="#FBFF90"/>
<path d="M730.839 801.002C730.839 801.002 914.263 915.699 920.5 917.5L924.339 1146H107.339L730.839 801.002Z" fill="#FE91C2"/>
<path d="M920.339 917.5V1146H1170.34L1170.34 792L920.339 917.5Z" fill="#EE8F2A"/>
<path d="M762.5 373.5L223.839 96.5L397.839 0H1418.5L762.5 373.5Z" fill="#180F05"/>
<path d="M398 0L0 223L7.43866e-05 0H398Z" fill="#1A2D54"/>
</svg>
